<svg id="Layer_1" data-name="Layer 1" xmlns="http://www.w3.org/2000/svg" viewBox="0 0 641.89 646.18"><defs><style>.cls-1{fill:#caf4b8;}.cls-2{fill:#4c6642;}.cls-3{fill:#386895;}.cls-4{fill:#273b7a;}.cls-5{fill:#295a82;}.cls-6{fill:#e5cf7b;}.cls-7{fill:#121149;}.cls-8{fill:#181854;}.cls-9{fill:#0b0b38;}</style></defs><g id="eSentry_logo" data-name="eSentry logo"><circle class="cls-1" cx="320.95" cy="320.95" r="320.95"/><path class="cls-2" d="M628.31,378.33l-87.56-86.88a18.3,18.3,0,0,0-24.67-1l-39.63,33.34a18.28,18.28,0,0,1-24.71-1.06l-112-112a18.3,18.3,0,0,0-26.23.37L111.59,424.46a18.29,18.29,0,0,0,.35,25.51l186.4,186.4a18.26,18.26,0,0,0,12.3,5.35q5.16.16,10.36.17c151.54,0,278.55-105,312.21-246.27A18.32,18.32,0,0,0,628.31,378.33Z"/><path class="cls-3" d="M103,290.05,249.63,148.86s33.85-32.42,71.32,0V294.74l-35.66,71.32Z"/><path class="cls-4" d="M538.33,289.53,392.27,148.86s-33.86-32.42-71.32,0V294.74l35.66,71.32Z"/><rect class="cls-5" x="249.63" y="330.39" width="142.64" height="71.32"/><rect class="cls-4" x="320.23" y="330.39" width="72.04" height="71.32"/><circle class="cls-4" cx="178.3" cy="366.05" r="106.98"/><circle class="cls-6" cx="176.61" cy="362.57" r="70.64"/><circle class="cls-7" cx="463.59" cy="366.05" r="106.98"/><circle class="cls-6" cx="463.59" cy="366.05" r="71.32"/><path class="cls-4" d="M321,351.47h0a17.83,17.83,0,0,1-17.83-17.83V152.1A17.83,17.83,0,0,1,321,134.27h0a17.83,17.83,0,0,1,17.83,17.83V333.64A17.83,17.83,0,0,1,321,351.47Z"/><path class="cls-7" d="M321,134.27c-.25,0-.48,0-.72,0V351.44c.24,0,.47,0,.72,0a17.83,17.83,0,0,0,17.83-17.83V152.1A17.83,17.83,0,0,0,321,134.27Z"/><circle class="cls-8" cx="320.95" cy="347.68" r="39.98"/><path class="cls-9" d="M321,307.71c-.25,0-.48,0-.72,0v79.89c.24,0,.47,0,.72,0a40,40,0,0,0,0-80Z"/></g></svg>