<svg id="Layer_1" data-name="Layer 1" xmlns="http://www.w3.org/2000/svg" viewBox="0 0 5608 3704"><defs><style>.cls-1{fill:#caf4b8;}.cls-2{fill:#4c6642;}.cls-3{fill:#386895;}.cls-4{fill:#273b7a;}.cls-5{fill:#295a82;}.cls-6{fill:#e5cf7b;}.cls-7{fill:#121149;}.cls-8{fill:#181854;}.cls-9{fill:#0b0b38;}</style></defs><g id="eSentry_logo" data-name="eSentry logo"><circle class="cls-1" cx="2675.82" cy="1843.73" r="1237.6"/><path class="cls-2" d="M3902.77,2108.91l-411-407.79-251.69,211.77-529-529.05-875.53,925.42L2622.2,3096c22.5,1.22,45.15,1.89,68,1.89C3288.51,3097.87,3787.67,2673.25,3902.77,2108.91Z"/><path class="cls-3" d="M1835.48,1724.6l565.31-544.47s130.57-125,275,0v562.55l-137.51,275Z"/><path class="cls-4" d="M3514.08,1722.59l-563.24-542.46s-130.56-125-275,0v562.55l137.51,275Z"/><rect class="cls-5" x="2400.79" y="1880.15" width="550.05" height="275.02"/><rect class="cls-4" x="2673.07" y="1880.15" width="277.77" height="275.02"/><circle class="cls-4" cx="2125.77" cy="2017.66" r="412.53"/><circle class="cls-6" cx="2119.23" cy="2004.24" r="272.41"/><circle class="cls-7" cx="3225.86" cy="2017.66" r="412.53"/><circle class="cls-6" cx="3225.86" cy="2017.66" r="275.02"/><path class="cls-4" d="M2675.82,1961.45h0a68.77,68.77,0,0,1-68.76-68.76v-700a68.77,68.77,0,0,1,68.76-68.76h0a68.76,68.76,0,0,1,68.75,68.76v700.05A68.76,68.76,0,0,1,2675.82,1961.45Z"/><path class="cls-7" d="M2675.82,1123.88c-.94,0-1.85.1-2.78.14v837.29c.93,0,1.84.14,2.78.14a68.76,68.76,0,0,0,68.75-68.76v-700A68.76,68.76,0,0,0,2675.82,1123.88Z"/><circle class="cls-8" cx="2675.82" cy="1946.82" r="154.18"/><path class="cls-9" d="M2675.82,1792.68c-.94,0-1.84.13-2.78.14V2100.9c.94,0,1.84.14,2.78.14a154.18,154.18,0,0,0,0-308.36Z"/></g></svg>